<svg xmlns="http://www.w3.org/2000/svg" viewBox="0 0 536.29 559.23"><defs><style>.cls-1{fill:#fff;}</style></defs><g id="Layer_2" data-name="Layer 2"><g id="Layer_1-2" data-name="Layer 1"><path class="cls-1" d="M255.61,0h8.21c3.92.55,7.89.9,11.76,1.68,33.36,6.68,55.77,25.87,67.52,57.08,4.35,11.57,4.64,23.62,4.62,35.8q-.2,119.61-.07,239.2,0,44.81-.06,89.59a6.39,6.39,0,0,0,3.48,6.13,6.12,6.12,0,0,0,6.64-.41c2.33-1.55,2.88-3.84,2.87-6.51q-.12-45.22-.13-90.45,0-78.1,0-156.22c0-1.33-.16-2.68-.1-4,.26-6.38,0-12.85,1-19.11,3.57-22.22,14.35-40.57,32.4-54.53,19.82-15.34,42.56-21,67.43-17.63a85.21,85.21,0,0,1,50.59,25.66c13.09,13.43,21.29,29.31,23.41,47.8a241.26,241.26,0,0,1,1.09,27.17q.09,187.08,0,374.16v3.83H456.22v-4.12q.21-149.6.43-299.17.06-43.93,0-87.87c0-1.53.11-3.07,0-4.59a7.43,7.43,0,0,0-4.42-6.58,7.11,7.11,0,0,0-7.45.77c-2.63,1.88-3.11,4.66-3.1,7.64.14,33.11.33,66.22.37,99.32q.09,78.54,0,157.08a105.14,105.14,0,0,1-1.1,14.82c-3.05,21.41-13.22,39.22-30,53-21.29,17.43-46,24-73.32,18.74-30.92-6-52.46-23.71-64.93-52-5.42-12.3-6.54-25.3-6.51-38.6q.23-116.15.08-232.3,0-49.11,0-98.21a8.54,8.54,0,0,0-1.33-4.77,5.68,5.68,0,0,0-7-2.07c-3.18,1.14-4.56,3.17-4.56,6.85q0,40.92,0,81.84c0,33.48.17,67,0,100.44-.06,16.9-6.46,31.59-17.61,44.29-21.86,24.88-60.13,31.13-89.33,14.91-8.63-4.8-15.39-11.59-22.28-18.36Q63.34,250.61,2.45,191.08A17.39,17.39,0,0,0,0,189.32l58.07-56.89a4.27,4.27,0,0,1,.48.4l99.69,98.34c.21.2.41.41.61.62,2.81,2.94,5.73,3.72,8.89,2.39a8.05,8.05,0,0,0,4.52-7.72c-.17-14.25-.41-28.5-.44-42.75-.07-32.06,0-64.13,0-96.19a82.32,82.32,0,0,1,6.43-33.13c12.44-28.82,34.35-46.47,65.7-52.7C247.76.92,251.7.55,255.61,0Z"/></g></g></svg>